# xmcd
#
# Track frame offsets: 
#        150
#        19106
#        40193
#        67381
#        89570
#        119477
#        147399
#        175014
#        211189
#        224854
#
# Disc length: 3448 seconds
#
# Revision: 0
# Processed by: cddbd v1.5.2PL0 Copyright (c) Steve Scherf et al.
# Submitted via: ExactAudioCopy v0.99pb3
#
DISCID=a00d760a
DTITLE=Sam Lay Blues Band - Feelin' Good
DYEAR=2007
DGENRE=Blues
TTITLE0=Poison Ivy
TTITLE1=Long Distance Call
TTITLE2=Medley: Rock Me Baby, I'm A King Bee
TTITLE3=Short Haired Woman
TTITLE4=Feelin' Good
TTITLE5=Mojo Hand
TTITLE6=Jelly Jelly
TTITLE7=Medley: Roll Over Beethoven, Hound Dog, Whole Lotta Shakin'
TTITLE8=Juke
TTITLE9=Meet Me At Midnight
EXTD=
EXTT0=
EXTT1=
EXTT2=
EXTT3=
EXTT4=
EXTT5=
EXTT6=
EXTT7=
EXTT8=
EXTT9=
PLAYORDER=
